<?xml version="1.0" standalone="no"?>
<!DOCTYPE svg PUBLIC "-//W3C//DTD SVG 20010904//EN"
 "http://www.w3.org/TR/2001/REC-SVG-20010904/DTD/svg10.dtd">
<svg version="1.0" xmlns="http://www.w3.org/2000/svg"
 width="35" height="35" viewBox="0 0 512 450"
 preserveAspectRatio="xMidYMid meet">

<g transform="translate(0.000000,512.000000) scale(0.100000,-0.100000)"
fill="#000000" stroke="none">
<path d="M681 4784 c-169 -45 -301 -180 -346 -351 -23 -87 -22 -2700 0 -2788
45 -172 179 -305 352 -350 49 -13 205 -15 1074 -15 l1017 0 402 -466 c414
-479 429 -494 500 -494 71 0 86 15 502 496 500 579 489 566 537 667 96 199
106 412 29 623 -134 372 -522 553 -848 396 l-60 -28 0 951 c0 810 -2 959 -15
1008 -45 173 -178 307 -350 352 -86 22 -2710 22 -2794 -1z m2765 -330 c15 -11
37 -33 48 -48 21 -27 21 -36 24 -980 l2 -953 -60 29 c-114 55 -246 70 -374 43
-348 -74 -585 -473 -511 -862 8 -43 15 -79 15 -81 0 -1 -416 -1 -924 0 -916 3
-925 3 -952 24 -15 11 -37 33 -48 48 -21 27 -21 32 -24 1339 -1 722 0 1326 3
1344 7 40 49 91 90 109 25 11 269 13 1357 11 1323 -2 1327 -2 1354 -23z m-97
-2249 c35 -20 80 -61 142 -133 93 -106 130 -132 189 -132 58 0 96 26 182 124
95 111 135 140 215 161 70 18 128 12 200 -22 134 -62 223 -266 196 -444 -21
-136 -48 -174 -433 -619 -193 -223 -355 -405 -360 -405 -5 0 -167 182 -360
405 -384 445 -412 483 -433 619 -19 124 14 253 92 358 86 118 245 155 370 88z"/>
<path d="M1375 3826 c-41 -18 -83 -69 -90 -109 -3 -18 -5 -334 -3 -704 3 -660
3 -672 24 -699 33 -45 70 -67 121 -71 47 -5 67 4 719 330 502 251 677 343 697
366 48 57 48 145 0 202 -20 23 -195 115 -695 365 -705 352 -702 351 -773 320z
m975 -786 c0 -3 -169 -89 -375 -193 l-375 -187 0 380 0 380 375 -187 c206
-104 375 -190 375 -193z"/>
</g>
</svg>
