<svg width="25" height="30" viewBox="0 0 18 20" fill="none" xmlns="http://www.w3.org/2000/svg">
<path  d="M5.625 2.22434C5.32663 2.22434 5.04048 2.34137 4.8295 2.54969C4.61853 2.758 4.5 3.04054 4.5 3.33515C4.5 3.62975 4.61853 3.91229 4.8295 4.12061C5.04048 4.32892 5.32663 4.44596 5.625 4.44596C5.92337 4.44596 6.20952 4.32892 6.4205 4.12061C6.63147 3.91229 6.75 3.62975 6.75 3.33515C6.75 3.04054 6.63147 2.758 6.4205 2.54969C6.20952 2.34137 5.92337 2.22434 5.625 2.22434ZM2.44125 2.22434C2.67368 1.57392 3.10471 1.01071 3.67492 0.612322C4.24514 0.213937 4.92647 0 5.625 0C6.32353 0 7.00486 0.213937 7.57508 0.612322C8.14529 1.01071 8.57632 1.57392 8.80875 2.22434H16.875C17.1734 2.22434 17.4595 2.34137 17.6705 2.54969C17.8815 2.758 18 3.04054 18 3.33515C18 3.62975 17.8815 3.91229 17.6705 4.12061C17.4595 4.32892 17.1734 4.44596 16.875 4.44596H8.80875C8.57632 5.09637 8.14529 5.65959 7.57508 6.05797C7.00486 6.45636 6.32353 6.6703 5.625 6.6703C4.92647 6.6703 4.24514 6.45636 3.67492 6.05797C3.10471 5.65959 2.67368 5.09637 2.44125 4.44596H1.125C0.826631 4.44596 0.540484 4.32892 0.329505 4.12061C0.118527 3.91229 0 3.62975 0 3.33515C0 3.04054 0.118527 2.758 0.329505 2.54969C0.540484 2.34137 0.826631 2.22434 1.125 2.22434H2.44125ZM12.375 8.88919C12.0766 8.88919 11.7905 9.00622 11.5795 9.21454C11.3685 9.42286 11.25 9.70539 11.25 10C11.25 10.2946 11.3685 10.5771 11.5795 10.7855C11.7905 10.9938 12.0766 11.1108 12.375 11.1108C12.6734 11.1108 12.9595 10.9938 13.1705 10.7855C13.3815 10.5771 13.5 10.2946 13.5 10C13.5 9.70539 13.3815 9.42286 13.1705 9.21454C12.9595 9.00622 12.6734 8.88919 12.375 8.88919ZM9.19125 8.88919C9.42368 8.23878 9.85471 7.67556 10.4249 7.27717C10.9951 6.87879 11.6765 6.66485 12.375 6.66485C13.0735 6.66485 13.7549 6.87879 14.3251 7.27717C14.8953 7.67556 15.3263 8.23878 15.5588 8.88919H16.875C17.1734 8.88919 17.4595 9.00622 17.6705 9.21454C17.8815 9.42286 18 9.70539 18 10C18 10.2946 17.8815 10.5771 17.6705 10.7855C17.4595 10.9938 17.1734 11.1108 16.875 11.1108H15.5588C15.3263 11.7612 14.8953 12.3244 14.3251 12.7228C13.7549 13.1212 13.0735 13.3351 12.375 13.3351C11.6765 13.3351 10.9951 13.1212 10.4249 12.7228C9.85471 12.3244 9.42368 11.7612 9.19125 11.1108H1.125C0.826631 11.1108 0.540484 10.9938 0.329505 10.7855C0.118527 10.5771 0 10.2946 0 10C0 9.70539 0.118527 9.42286 0.329505 9.21454C0.540484 9.00622 0.826631 8.88919 1.125 8.88919H9.19125ZM5.625 15.554C5.32663 15.554 5.04048 15.6711 4.8295 15.8794C4.61853 16.0877 4.5 16.3702 4.5 16.6649C4.5 16.9595 4.61853 17.242 4.8295 17.4503C5.04048 17.6586 5.32663 17.7757 5.625 17.7757C5.92337 17.7757 6.20952 17.6586 6.4205 17.4503C6.63147 17.242 6.75 16.9595 6.75 16.6649C6.75 16.3702 6.63147 16.0877 6.4205 15.8794C6.20952 15.6711 5.92337 15.554 5.625 15.554ZM2.44125 15.554C2.67368 14.9036 3.10471 14.3404 3.67492 13.942C4.24514 13.5436 4.92647 13.3297 5.625 13.3297C6.32353 13.3297 7.00486 13.5436 7.57508 13.942C8.14529 14.3404 8.57632 14.9036 8.80875 15.554H16.875C17.1734 15.554 17.4595 15.6711 17.6705 15.8794C17.8815 16.0877 18 16.3702 18 16.6649C18 16.9595 17.8815 17.242 17.6705 17.4503C17.4595 17.6586 17.1734 17.7757 16.875 17.7757H8.80875C8.57632 18.4261 8.14529 18.9893 7.57508 19.3877C7.00486 19.7861 6.32353 20 5.625 20C4.92647 20 4.24514 19.7861 3.67492 19.3877C3.10471 18.9893 2.67368 18.4261 2.44125 17.7757H1.125C0.826631 17.7757 0.540484 17.6586 0.329505 17.4503C0.118527 17.242 0 16.9595 0 16.6649C0 16.3702 0.118527 16.0877 0.329505 15.8794C0.540484 15.6711 0.826631 15.554 1.125 15.554H2.44125Z" fill="#000" />
</svg>
