<svg width="19" height="19" viewBox="0 0 19 19" fill="none" xmlns="http://www.w3.org/2000/svg">
<path d="M8.70753 14.0005C9.49547 14.0005 10.2757 13.8453 11.0036 13.5438C11.7316 13.2423 12.393 12.8003 12.9502 12.2431C13.5073 11.686 13.9493 11.0246 14.2508 10.2966C14.5523 9.56865 14.7075 8.78843 14.7075 8.0005C14.7075 7.21257 14.5523 6.43236 14.2508 5.7044C13.9493 4.97645 13.5073 4.31501 12.9502 3.75786C12.393 3.20071 11.7316 2.75875 11.0036 2.45723C10.2757 2.1557 9.49547 2.0005 8.70753 2.0005C7.11624 2.0005 5.59011 2.63264 4.46489 3.75786C3.33968 4.88308 2.70753 6.4092 2.70753 8.0005C2.70753 9.5918 3.33968 11.1179 4.46489 12.2431C5.59011 13.3684 7.11624 14.0005 8.70753 14.0005ZM15.0275 12.9065L18.6075 16.4865C18.703 16.5788 18.7791 16.6892 18.8314 16.8113C18.8837 16.9333 18.9112 17.0645 18.9123 17.1973C18.9133 17.3301 18.8879 17.4618 18.8376 17.5846C18.7872 17.7075 18.7129 17.8191 18.6189 17.9129C18.525 18.0067 18.4132 18.0809 18.2903 18.1311C18.1674 18.1813 18.0357 18.2065 17.9029 18.2052C17.7701 18.204 17.6389 18.1763 17.517 18.1238C17.395 18.0713 17.2847 17.9951 17.1925 17.8995L13.6125 14.3195C12.005 15.5674 9.98233 16.1557 7.95629 15.9647C5.93025 15.7737 4.05314 14.8178 2.70709 13.2916C1.36103 11.7653 0.647219 9.78345 0.71096 7.74943C0.774701 5.7154 1.6112 3.78213 3.05018 2.34315C4.48916 0.904173 6.42244 0.0676701 8.45646 0.00392902C10.4905 -0.0598121 12.4723 0.654 13.9986 2.00005C15.5248 3.34611 16.4808 5.22322 16.6717 7.24926C16.8627 9.2753 16.2744 11.298 15.0265 12.9055L15.0275 12.9065Z" fill="#181B19"/>
</svg>
